Coordinates
version=1
nRows=8
nColumns=36
inDegrees=yes

Units are S.I. units (second, meters, Newtons, ...)
If the header above contains a line with 'inDegrees', this indicates whether rotational values are in degrees (yes) or radians (no).

endheader
time	pelvis_tilt	pelvis_list	pelvis_rotation	pelvis_tx	pelvis_ty	pelvis_tz	hip_flexion_r	hip_adduction_r	hip_rotation_r	knee_angle_r	knee_angle_r_beta	ankle_angle_r	subtalar_angle_r	mtp_angle_r	hip_flexion_l	hip_adduction_l	hip_rotation_l	knee_angle_l	knee_angle_l_beta	ankle_angle_l	subtalar_angle_l	mtp_angle_l	lumbar_extension	lumbar_bending	lumbar_rotation	arm_flex_r	arm_add_r	arm_rot_r	elbow_flex_r	pro_sup_r	arm_flex_l	arm_add_l	arm_rot_l	elbow_flex_l	pro_sup_l
      1.67916670	    -18.47310733	      0.22307067	     -0.11522644	     -0.93285130	      1.16926425	     -0.06209481	     35.37556297	     -0.12995954	      4.58616794	     31.74140365	      0.55399200	     15.81848242	     -8.48850317	     -7.49999987	     35.53829106	     -0.74383617	      3.97719859	     32.55793154	      0.56824310	     14.55105869	     -9.33247444	     -7.49999987	     -9.60080561	      0.18829302	     -2.90914424	      8.73788865	    -16.26261987	     13.67177841	     37.08054276	     76.95828919	      5.53790705	    -18.24461952	      5.67112917	     50.42863076	     78.94482783
      1.68333330	    -19.49660414	      0.19053030	     -0.23722792	     -0.93363607	      1.16362809	     -0.06185469	     37.38338573	     -0.02961562	      4.50301580	     33.29949172	      0.58118577	     16.58477704	     -8.18628683	     -7.49999987	     37.53195780	     -1.02174590	      3.55120903	     34.10424778	      0.59523141	     15.63533982	     -8.50648613	     -7.49999987	     -8.70304738	      0.14748721	     -2.85440671	      8.64652118	    -16.27832722	     13.53242785	     36.04964864	     76.51127550	      5.27270708	    -18.54015901	      5.71244792	     49.88249118	     78.42049245
      1.68750000	    -20.15966272	      0.19761748	     -0.34227684	     -0.93396492	      1.16408857	     -0.06161121	     38.71180345	      0.00524937	      4.46601695	     34.36757171	      0.59982728	     17.05956084	     -7.98937370	     -7.49999987	     38.86589347	     -1.17788589	      3.27938253	     35.13998428	      0.61330842	     16.07064409	     -8.26770654	     -7.49999987	     -8.44436162	      0.09938891	     -2.81320592	      8.30898441	    -16.52346597	     13.50974444	     36.15579868	     75.92152679	      4.94504542	    -18.80464767	      5.69097004	     49.88814709	     77.71793578
      1.69166670	    -20.87284492	      0.23335796	     -0.40901222	     -0.93386335	      1.16056228	     -0.06203604	     39.96567139	     -0.04099440	      4.31026997	     35.37454332	      0.61740225	     17.63123220	     -7.76926959	     -7.49999987	     40.10209975	     -1.29678029	      2.94799367	     36.07280149	      0.62958916	     16.47808710	     -8.00148382	     -7.49999987	     -7.87309789	     -0.01127799	     -2.75717653	      7.85558995	    -16.66993067	     13.50738908	     35.80524370	     75.04256115	      4.51799140	    -18.97511389	      5.84074448	     49.58061723	     76.67135731
      1.69583330	    -21.38263106	      0.23479160	     -0.47392304	     -0.93528970	      1.15971402	     -0.06065637	     40.84264673	      0.00441733	      4.17995530	     36.03360867	      0.62890511	     18.01100309	     -7.58194113	     -7.49999987	     41.00899394	     -1.47352411	      2.58901405	     36.74129082	      0.64125650	     16.68463404	     -7.83935026	     -7.49999987	     -7.69001793	     -0.06553148	     -2.73544351	      7.54331775	    -16.88264834	     13.56768203	     35.66687211	     74.78753318	      4.08917177	    -19.22064593	      5.90068463	     49.40454880	     76.30999745
      1.70000000	    -21.50606277	      0.23802297	     -0.55801899	     -0.93476143	      1.15787879	     -0.06319522	     41.31759118	     -0.02114553	      4.13307641	     36.71733239	      0.64083834	     18.19968662	     -7.73073087	     -7.49999987	     41.45736235	     -1.45971214	      2.48250397	     37.40680274	      0.65287187	     16.83680202	     -8.01104146	     -7.49999987	     -8.18189273	      0.02042124	     -2.58037727	      7.03439695	    -17.40206369	     13.47722154	     36.52900137	     74.10973946	      3.47429571	    -19.41267651	      5.88745362	     50.17334899	     75.58303790
      1.70416670	    -22.25310883	      0.26145882	     -0.68822918	     -0.93550963	      1.15404238	     -0.05987247	     42.52136670	      0.04286074	      3.98921579	     37.52506638	      0.65493596	     18.78678500	     -7.05431957	     -7.49999987	     42.56069556	     -1.72769964	      1.96876532	     38.08744090	      0.66475125	     17.31607355	     -7.39444198	     -7.49999987	     -7.32429920	     -0.08393233	     -2.40589339	      6.63673179	    -17.42066697	     13.55082601	     35.33858810	     74.06448954	      2.97140727	    -19.36229565	      5.97538965	     49.15096590	     75.45207370
      1.70833330	    -22.74262987	      0.25836077	     -0.82050783	     -0.93810929	      1.15220347	     -0.06083765	     43.55511353	      0.16368249	      4.00718449	     38.32877879	      0.66896339	     19.20631987	     -6.93997041	     -7.49999987	     43.51957151	     -1.90747892	      1.68999954	     38.91201023	      0.67914270	     17.76126992	     -7.00290563	     -7.49999987	     -7.15176438	     -0.05102965	     -2.31891867	      6.24527041	    -17.73341927	     13.61727443	     35.29052742	     73.99591319	      2.45359352	    -19.46119867	      5.99836295	     49.06494601	     75.31986906
